<svg width="580" height="170" viewBox="0 0 580 170" fill="none" xmlns="http://www.w3.org/2000/svg">
<rect x="0.5" y="0.5" width="579" height="169" rx="17.5" stroke="#6C00C1" stroke-opacity="0.6"/>
<path d="M22.914 10.634C22.362 10.634 21.942 10.784 21.654 11.084C21.378 11.384 21.24 11.828 21.24 12.416V13.532H24.156V14.612H21.276V23H19.998V14.612H18.306V13.532H19.998V12.362C19.998 11.498 20.244 10.814 20.736 10.31C21.24 9.806 21.948 9.554 22.86 9.554C23.22 9.554 23.568 9.608 23.904 9.716C24.24 9.812 24.522 9.956 24.75 10.148L24.318 11.102C23.946 10.79 23.478 10.634 22.914 10.634ZM25.884 9.644H27.162V23H25.884V9.644ZM38.9772 18.662H31.0572C31.1292 19.646 31.5072 20.444 32.1912 21.056C32.8752 21.656 33.7392 21.956 34.7832 21.956C35.3712 21.956 35.9112 21.854 36.4032 21.65C36.8952 21.434 37.3212 21.122 37.6812 20.714L38.4012 21.542C37.9812 22.046 37.4532 22.43 36.8172 22.694C36.1932 22.958 35.5032 23.09 34.7472 23.09C33.7752 23.09 32.9112 22.886 32.1552 22.478C31.4112 22.058 30.8292 21.482 30.4092 20.75C29.9892 20.018 29.7792 19.19 29.7792 18.266C29.7792 17.342 29.9772 16.514 30.3732 15.782C30.7812 15.05 31.3332 14.48 32.0292 14.072C32.7372 13.664 33.5292 13.46 34.4052 13.46C35.2812 13.46 36.0672 13.664 36.7632 14.072C37.4592 14.48 38.0052 15.05 38.4012 15.782C38.7972 16.502 38.9952 17.33 38.9952 18.266L38.9772 18.662ZM34.4052 14.558C33.4932 14.558 32.7252 14.852 32.1012 15.44C31.4892 16.016 31.1412 16.772 31.0572 17.708H37.7712C37.6872 16.772 37.3332 16.016 36.7092 15.44C36.0972 14.852 35.3292 14.558 34.4052 14.558ZM47.3628 23L44.3568 19.04L41.3328 23H39.8928L43.6368 18.14L40.0728 13.532H41.5128L44.3568 17.24L47.2008 13.532H48.6048L45.0408 18.14L48.8208 23H47.3628ZM59.583 23.09C58.647 23.09 57.807 22.886 57.063 22.478C56.331 22.07 55.755 21.5 55.335 20.768C54.915 20.024 54.705 19.19 54.705 18.266C54.705 17.342 54.915 16.514 55.335 15.782C55.755 15.05 56.331 14.48 57.063 14.072C57.807 13.664 58.647 13.46 59.583 13.46C60.399 13.46 61.125 13.622 61.761 13.946C62.409 14.258 62.919 14.72 63.291 15.332L62.337 15.98C62.025 15.512 61.629 15.164 61.149 14.936C60.669 14.696 60.147 14.576 59.583 14.576C58.899 14.576 58.281 14.732 57.729 15.044C57.189 15.344 56.763 15.776 56.451 16.34C56.151 16.904 56.001 17.546 56.001 18.266C56.001 18.998 56.151 19.646 56.451 20.21C56.763 20.762 57.189 21.194 57.729 21.506C58.281 21.806 58.899 21.956 59.583 21.956C60.147 21.956 60.669 21.842 61.149 21.614C61.629 21.386 62.025 21.038 62.337 20.57L63.291 21.218C62.919 21.83 62.409 22.298 61.761 22.622C61.113 22.934 60.387 23.09 59.583 23.09ZM69.5133 23.09C68.6013 23.09 67.7793 22.886 67.0473 22.478C66.3153 22.058 65.7393 21.482 65.3193 20.75C64.8993 20.018 64.6893 19.19 64.6893 18.266C64.6893 17.342 64.8993 16.514 65.3193 15.782C65.7393 15.05 66.3153 14.48 67.0473 14.072C67.7793 13.664 68.6013 13.46 69.5133 13.46C70.4253 13.46 71.2473 13.664 71.9793 14.072C72.7113 14.48 73.2813 15.05 73.6893 15.782C74.1093 16.514 74.3193 17.342 74.3193 18.266C74.3193 19.19 74.1093 20.018 73.6893 20.75C73.2813 21.482 72.7113 22.058 71.9793 22.478C71.2473 22.886 70.4253 23.09 69.5133 23.09ZM69.5133 21.956C70.1853 21.956 70.7853 21.806 71.3133 21.506C71.8533 21.194 72.2733 20.756 72.5733 20.192C72.8733 19.628 73.0233 18.986 73.0233 18.266C73.0233 17.546 72.8733 16.904 72.5733 16.34C72.2733 15.776 71.8533 15.344 71.3133 15.044C70.7853 14.732 70.1853 14.576 69.5133 14.576C68.8413 14.576 68.2353 14.732 67.6953 15.044C67.1673 15.344 66.7473 15.776 66.4353 16.34C66.1353 16.904 65.9853 17.546 65.9853 18.266C65.9853 18.986 66.1353 19.628 66.4353 20.192C66.7473 20.756 67.1673 21.194 67.6953 21.506C68.2353 21.806 68.8413 21.956 69.5133 21.956ZM81.7525 13.46C82.9405 13.46 83.8825 13.808 84.5785 14.504C85.2865 15.188 85.6405 16.19 85.6405 17.51V23H84.3625V17.636C84.3625 16.652 84.1165 15.902 83.6245 15.386C83.1325 14.87 82.4305 14.612 81.5185 14.612C80.4985 14.612 79.6885 14.918 79.0885 15.53C78.5005 16.13 78.2065 16.964 78.2065 18.032V23H76.9285V13.532H78.1525V15.278C78.5005 14.702 78.9805 14.258 79.5925 13.946C80.2165 13.622 80.9365 13.46 81.7525 13.46ZM94.0961 22.424C93.8561 22.64 93.5561 22.808 93.1961 22.928C92.8481 23.036 92.4821 23.09 92.0981 23.09C91.2101 23.09 90.5261 22.85 90.0461 22.37C89.5661 21.89 89.3261 21.212 89.3261 20.336V14.612H87.6341V13.532H89.3261V11.462H90.6041V13.532H93.4841V14.612H90.6041V20.264C90.6041 20.828 90.7421 21.26 91.0181 21.56C91.3061 21.848 91.7141 21.992 92.2421 21.992C92.5061 21.992 92.7581 21.95 92.9981 21.866C93.2501 21.782 93.4661 21.662 93.6461 21.506L94.0961 22.424ZM99.7346 13.46C100.971 13.46 101.919 13.772 102.579 14.396C103.239 15.008 103.569 15.92 103.569 17.132V23H102.345V21.524C102.057 22.016 101.631 22.4 101.067 22.676C100.515 22.952 99.8546 23.09 99.0866 23.09C98.0306 23.09 97.1906 22.838 96.5666 22.334C95.9426 21.83 95.6306 21.164 95.6306 20.336C95.6306 19.532 95.9186 18.884 96.4946 18.392C97.0826 17.9 98.0126 17.654 99.2846 17.654H102.291V17.078C102.291 16.262 102.063 15.644 101.607 15.224C101.151 14.792 100.485 14.576 99.6086 14.576C99.0086 14.576 98.4326 14.678 97.8806 14.882C97.3286 15.074 96.8546 15.344 96.4586 15.692L95.8826 14.738C96.3626 14.33 96.9386 14.018 97.6106 13.802C98.2826 13.574 98.9906 13.46 99.7346 13.46ZM99.2846 22.082C100.005 22.082 100.623 21.92 101.139 21.596C101.655 21.26 102.039 20.78 102.291 20.156V18.608H99.3206C97.7006 18.608 96.8906 19.172 96.8906 20.3C96.8906 20.852 97.1006 21.29 97.5206 21.614C97.9406 21.926 98.5286 22.082 99.2846 22.082ZM107.04 13.532H108.318V23H107.04V13.532ZM107.688 11.462C107.424 11.462 107.202 11.372 107.022 11.192C106.842 11.012 106.752 10.796 106.752 10.544C106.752 10.304 106.842 10.094 107.022 9.914C107.202 9.734 107.424 9.644 107.688 9.644C107.952 9.644 108.174 9.734 108.354 9.914C108.534 10.082 108.624 10.286 108.624 10.526C108.624 10.79 108.534 11.012 108.354 11.192C108.174 11.372 107.952 11.462 107.688 11.462ZM116.698 13.46C117.886 13.46 118.828 13.808 119.524 14.504C120.232 15.188 120.586 16.19 120.586 17.51V23H119.308V17.636C119.308 16.652 119.062 15.902 118.57 15.386C118.078 14.87 117.376 14.612 116.464 14.612C115.444 14.612 114.634 14.918 114.034 15.53C113.446 16.13 113.152 16.964 113.152 18.032V23H111.874V13.532H113.098V15.278C113.446 14.702 113.926 14.258 114.538 13.946C115.162 13.622 115.882 13.46 116.698 13.46ZM132.335 18.662H124.415C124.487 19.646 124.865 20.444 125.549 21.056C126.233 21.656 127.097 21.956 128.141 21.956C128.729 21.956 129.269 21.854 129.761 21.65C130.253 21.434 130.679 21.122 131.039 20.714L131.759 21.542C131.339 22.046 130.811 22.43 130.175 22.694C129.551 22.958 128.861 23.09 128.105 23.09C127.133 23.09 126.269 22.886 125.513 22.478C124.769 22.058 124.187 21.482 123.767 20.75C123.347 20.018 123.137 19.19 123.137 18.266C123.137 17.342 123.335 16.514 123.731 15.782C124.139 15.05 124.691 14.48 125.387 14.072C126.095 13.664 126.887 13.46 127.763 13.46C128.639 13.46 129.425 13.664 130.121 14.072C130.817 14.48 131.363 15.05 131.759 15.782C132.155 16.502 132.353 17.33 132.353 18.266L132.335 18.662ZM127.763 14.558C126.851 14.558 126.083 14.852 125.459 15.44C124.847 16.016 124.499 16.772 124.415 17.708H131.129C131.045 16.772 130.691 16.016 130.067 15.44C129.455 14.852 128.687 14.558 127.763 14.558ZM136.178 15.386C136.478 14.75 136.922 14.27 137.51 13.946C138.11 13.622 138.848 13.46 139.724 13.46V14.702L139.418 14.684C138.422 14.684 137.642 14.99 137.078 15.602C136.514 16.214 136.232 17.072 136.232 18.176V23H134.954V13.532H136.178V15.386Z" fill="#6C00C1"/>
<rect x="18" y="34" width="162" height="119" rx="15" fill="url(#paint0_linear)" fill-opacity="0.4"/>
<rect x="18.5" y="34.5" width="161" height="118" rx="14.5" stroke="#6C00C1" stroke-opacity="0.6"/>
<rect x="400" y="34" width="161" height="119" rx="15" fill="url(#paint1_linear)" fill-opacity="0.4"/>
<rect x="400.5" y="34.5" width="160" height="118" rx="14.5" stroke="#6C00C1" stroke-opacity="0.6"/>
<rect x="200" y="34" width="180" height="119" rx="15" fill="url(#paint2_linear)" fill-opacity="0.4"/>
<rect x="200.5" y="34.5" width="179" height="118" rx="14.5" stroke="#6C00C1" stroke-opacity="0.6"/>
<defs>
<linearGradient id="paint0_linear" x1="-6.89559" y1="9.60966" x2="265.783" y2="96.2153" gradientUnits="userSpaceOnUse">
<stop stop-color="white"/>
<stop offset="0.453125" stop-color="white" stop-opacity="0.42"/>
<stop offset="1" stop-color="white"/>
</linearGradient>
<linearGradient id="paint1_linear" x1="375.258" y1="9.60966" x2="646.559" y2="95.246" gradientUnits="userSpaceOnUse">
<stop stop-color="white"/>
<stop offset="0.453125" stop-color="white" stop-opacity="0.42"/>
<stop offset="1" stop-color="white"/>
</linearGradient>
<linearGradient id="paint2_linear" x1="172.338" y1="9.60966" x2="468.939" y2="114.28" gradientUnits="userSpaceOnUse">
<stop stop-color="white"/>
<stop offset="0.453125" stop-color="white" stop-opacity="0.42"/>
<stop offset="1" stop-color="white"/>
</linearGradient>
</defs>
</svg>
