<?xml version="1.0" encoding="utf-8"?>
<!-- Generator: Adobe Illustrator 24.0.2, SVG Export Plug-In . SVG Version: 6.00 Build 0)  -->
<svg version="1.1" id="Слой_1" xmlns="http://www.w3.org/2000/svg" xmlns:xlink="http://www.w3.org/1999/xlink" x="0px" y="0px"
	 viewBox="0 0 30 30" style="enable-background:new 0 0 30 30;" xml:space="preserve">
<style type="text/css">
	.st0{opacity:0.5;}
	.st1{fill:#6C00C1;}
	.st2{opacity:0.7;}
</style>
<g class="st0">
	<path class="st1" d="M17.6,20H2.4C1.1,20,0,18.9,0,17.6V2.4C0,1.1,1.1,0,2.4,0h15.2C18.9,0,20,1.1,20,2.4v15.2
		C20,18.9,18.9,20,17.6,20z"/>
</g>
<g class="st2">
	<path class="st1" d="M27.6,30H15.4c-1.3,0-2.4-1.1-2.4-2.4V15.4c0-1.3,1.1-2.4,2.4-2.4h12.2c1.3,0,2.4,1.1,2.4,2.4v12.2
		C30,28.9,28.9,30,27.6,30z"/>
</g>
</svg>
