<?xml version="1.0" encoding="utf-8"?>
<!-- Generator: Adobe Illustrator 24.0.2, SVG Export Plug-In . SVG Version: 6.00 Build 0)  -->
<svg version="1.1" id="Слой_1" xmlns="http://www.w3.org/2000/svg" xmlns:xlink="http://www.w3.org/1999/xlink" x="0px" y="0px"
	 viewBox="0 0 25 25" style="enable-background:new 0 0 25 25;" xml:space="preserve">
<style type="text/css">
	.st0{fill:#6C00C1;}
</style>
<path class="st0" d="M11.9,12c1.7,0,3.1-0.6,4.3-1.8C17.4,9.1,18,7.7,18,6c0-1.7-0.6-3.1-1.8-4.3C15,0.6,13.6,0,11.9,0
	c-1.7,0-3.1,0.6-4.3,1.8S5.9,4.4,5.9,6c0,1.7,0.6,3.1,1.8,4.3C8.9,11.4,10.3,12,11.9,12z"/>
<path class="st0" d="M22.5,19.2c0-0.5-0.1-1-0.2-1.6c-0.1-0.6-0.2-1.1-0.4-1.6c-0.2-0.5-0.4-1-0.7-1.5c-0.3-0.5-0.6-0.9-1-1.3
	c-0.4-0.4-0.9-0.7-1.4-0.9c-0.5-0.2-1.2-0.3-1.8-0.3c-0.3,0-0.5,0.1-1,0.4c-0.3,0.2-0.6,0.4-1,0.7c-0.3,0.2-0.8,0.4-1.3,0.6
	c-0.5,0.2-1.1,0.3-1.6,0.3s-1.1-0.1-1.6-0.3c-0.5-0.2-1-0.4-1.3-0.6c-0.4-0.2-0.7-0.5-1-0.7c-0.5-0.3-0.7-0.4-1-0.4
	c-0.7,0-1.3,0.1-1.8,0.3c-0.5,0.2-1,0.5-1.4,0.9c-0.4,0.4-0.7,0.8-1,1.3c-0.3,0.5-0.5,1-0.7,1.5c-0.2,0.5-0.3,1-0.4,1.6
	c-0.1,0.6-0.2,1.1-0.2,1.6c0,0.5,0,1,0,1.5c0,1.3,0.4,2.4,1.2,3.1C3.7,24.6,4.8,25,6.1,25h12c1.3,0,2.4-0.4,3.2-1.2
	c0.8-0.8,1.2-1.8,1.2-3.1C22.5,20.2,22.5,19.7,22.5,19.2z"/>
</svg>
